<svg width="600" height="600" viewBox="0 0 600 600" xmlns="http://www.w3.org/2000/svg"><polygon points="120,102 125.4,114.6 138,120 125.4,125.4 120,138 114.6,125.4 102,120 114.6,114.6" fill="#F6C87A" opacity="0.85" /><polygon points="220,168 223.6,176.4 232,180 223.6,183.6 220,192 216.4,183.6 208,180 216.4,176.4" fill="#F6C87A" opacity="0.85" /><polygon points="340,124 344.8,135.2 356,140 344.8,144.8 340,156 335.2,144.8 324,140 335.2,135.2" fill="#F6C87A" opacity="0.85" /><polygon points="420,210 423.0,217.0 430,220 423.0,223.0 420,230 417.0,223.0 410,220 417.0,217.0" fill="#F6C87A" opacity="0.85" /><polygon points="180,286 184.2,295.8 194,300 184.2,304.2 180,314 175.8,304.2 166,300 175.8,295.8" fill="#F6C87A" opacity="0.85" /><polygon points="300,240 306.0,254.0 320,260 306.0,266.0 300,280 294.0,266.0 280,260 294.0,254.0" fill="#F6C87A" opacity="0.85" /><polygon points="420,306 424.2,315.8 434,320 424.2,324.2 420,334 415.8,324.2 406,320 415.8,315.8" fill="#F6C87A" opacity="0.85" /></svg>