<svg xmlns="http://www.w3.org/2000/svg" width="256" height="256" viewBox="0 0 256 256">
  <rect width="256" height="256" rx="48" fill="#f0f9ff"/>
  <path d="M40 168c22-58 88-66 136-38-12 4-22 12-30 24 10 0 20 2 28 6-32 40-96 52-134 8z" fill="#22c55e"/>
  <path d="M110 150l10 10 10-10 10 10 10-10" fill="none" stroke="#0f172a" stroke-width="6" stroke-linecap="round" stroke-linejoin="round"/>
  <circle cx="108" cy="110" r="10" fill="#0f172a"/>
  <circle cx="148" cy="110" r="10" fill="#0f172a"/>
  <path d="M162 84c14 6 24 18 26 32" fill="none" stroke="#0ea5e9" stroke-width="8" stroke-linecap="round"/>
  <path d="M190 74c18 10 30 26 32 44" fill="none" stroke="#0ea5e9" stroke-width="6" stroke-linecap="round" opacity=".55"/>
</svg>